<?xml version="1.0" standalone="no"?>
<!DOCTYPE svg PUBLIC "-//W3C//DTD SVG 20010904//EN"
 "http://www.w3.org/TR/2001/REC-SVG-20010904/DTD/svg10.dtd">
<svg version="1.0" xmlns="http://www.w3.org/2000/svg"
 width="200.000000pt" height="200.000000pt" viewBox="0 0 200.000000 200.000000"
 preserveAspectRatio="xMidYMid meet">

<g transform="translate(0.000000,200.000000) scale(0.100000,-0.100000)"
fill="#000000" stroke="none">
<path d="M340 1380 c0 -6 83 -10 230 -10 147 0 230 4 230 10 0 6 -83 10 -230
10 -147 0 -230 -4 -230 -10z"/>
<path d="M1200 1380 c0 -6 83 -10 230 -10 147 0 230 4 230 10 0 6 -83 10 -230
10 -147 0 -230 -4 -230 -10z"/>
<path d="M448 1353 c68 -2 176 -2 240 0 64 1 9 3 -123 3 -132 0 -185 -2 -117
-3z"/>
<path d="M1318 1353 c68 -2 176 -2 240 0 64 1 9 3 -123 3 -132 0 -185 -2 -117
-3z"/>
<path d="M358 1028 c-2 -7 -3 -65 -2 -128 2 -108 3 -115 23 -118 19 -3 21 1
21 52 0 53 1 56 25 56 16 0 25 6 25 15 0 9 -9 15 -25 15 -22 0 -25 4 -25 40 0
38 2 40 30 40 23 0 30 4 30 20 0 17 -7 20 -49 20 -30 0 -50 -5 -53 -12z"/>
<path d="M540 910 l0 -130 50 0 c43 0 50 3 50 20 0 16 -7 20 -30 20 l-30 0 0
110 c0 103 -1 110 -20 110 -19 0 -20 -7 -20 -130z"/>
<path d="M720 922 c0 -133 5 -146 62 -140 48 5 59 33 56 153 -3 86 -5 100 -20
103 -16 3 -18 -7 -18 -101 0 -80 -3 -107 -15 -117 -21 -17 -24 -4 -27 115 -3
86 -5 100 -20 103 -16 3 -18 -8 -18 -116z"/>
<path d="M920 909 c0 -119 2 -130 18 -127 14 3 17 15 17 80 0 42 3 74 6 70 3
-4 14 -40 25 -79 16 -64 21 -73 41 -73 23 0 23 1 23 130 0 123 -1 130 -20 130
-18 0 -20 -7 -21 -72 l-1 -73 -20 73 c-18 64 -23 72 -44 72 l-24 0 0 -131z"/>
<path d="M1130 910 c0 -123 1 -130 20 -130 17 0 20 7 20 44 0 62 13 64 34 5
14 -36 23 -49 38 -49 12 0 18 5 15 13 -2 6 -14 40 -26 73 l-23 61 26 51 c31
61 31 62 7 62 -13 0 -26 -16 -42 -52 l-24 -53 -3 53 c-3 44 -6 52 -23 52 -18
0 -19 -8 -19 -130z"/>
<path d="M1340 910 l0 -130 55 0 c48 0 55 2 55 20 0 16 -7 20 -35 20 -33 0
-35 2 -35 35 0 31 3 35 25 35 18 0 25 5 25 20 0 15 -7 20 -25 20 -22 0 -25 4
-25 35 0 33 2 35 35 35 28 0 35 4 35 20 0 18 -7 20 -55 20 l-55 0 0 -130z"/>
<path d="M1520 1032 c0 -5 11 -46 25 -92 14 -46 25 -101 25 -122 0 -31 3 -38
20 -38 17 0 20 7 20 49 0 40 16 110 45 199 3 7 -4 12 -15 12 -14 0 -22 -11
-30 -42 -19 -74 -22 -75 -37 -15 -12 44 -19 57 -34 57 -10 0 -19 -4 -19 -8z"/>
</g>
</svg>
